<svg width="48" height="48" viewBox="0 0 48 48" fill="none" xmlns="http://www.w3.org/2000/svg">
<rect x="18.7593" y="16.1211" width="10.4854" height="3.2767" rx="1.63835" fill="#FFC629"/>
<rect x="16.1256" y="21.252" width="15.7282" height="3.2767" rx="1.63835" fill="#FFC629"/>
<rect x="18.7372" y="26.3818" width="10.4854" height="3.2767" rx="1.63835" fill="#FFC629"/>
<path d="M23.5366 42.0716C18.6206 42.0716 13.9059 40.1187 10.4298 36.6426C6.95364 33.1665 5.00077 28.4518 5.00077 23.5358C5.00077 18.6198 6.95364 13.9052 10.4298 10.429C13.9059 6.95287 18.6206 5 23.5366 5L23.5366 7.59501C19.3088 7.59501 15.2542 9.27449 12.2647 12.264C9.27525 15.2534 7.59578 19.308 7.59578 23.5358C7.59578 27.7636 9.27525 31.8182 12.2647 34.8077C15.2542 37.7971 19.3088 39.4766 23.5366 39.4766L23.5366 42.0716Z" fill="#3F3D56" stroke="#FEC629" stroke-width="0.5" stroke-linecap="square" stroke-linejoin="bevel"/>
<path d="M24.4649 4.99967C29.3809 4.99967 34.0956 6.95255 37.5717 10.4287C41.0478 13.9048 43.0007 18.6195 43.0007 23.5355C43.0007 28.4515 41.0478 33.1661 37.5717 36.6423C34.0955 40.1184 29.3809 42.0713 24.4649 42.0713L24.4649 39.4763C28.6927 39.4763 32.7473 37.7968 35.7367 34.8073C38.7262 31.8178 40.4057 27.7632 40.4057 23.5355C40.4057 19.3077 38.7262 15.2531 35.7367 12.2636C32.7473 9.27416 28.6927 7.59468 24.4649 7.59468L24.4649 4.99967Z" fill="#3F3D56" stroke="#FEC629" stroke-width="0.5" stroke-linecap="square" stroke-linejoin="bevel"/>
</svg>
