<svg width="48" height="48" viewBox="0 0 48 48" fill="none" xmlns="http://www.w3.org/2000/svg">
<path fill-rule="evenodd" clip-rule="evenodd" d="M13.0802 23.5934C13.0488 26.3498 14.1136 28.9809 16.0405 30.9078L23.4734 23.4749L30.9062 16.042C28.9794 14.1151 26.3483 13.0503 23.5919 13.0817C20.8354 13.1131 18.1794 14.2382 16.2081 16.2096C14.2367 18.1809 13.1116 20.8369 13.0802 23.5934Z" fill="#585858"/>
<path fill-rule="evenodd" clip-rule="evenodd" d="M33.8178 23.308C33.8492 20.5516 32.7843 17.9205 30.8575 15.9936L23.4246 23.4265L15.9917 30.8594C17.9186 32.7863 20.5496 33.8511 23.3061 33.8197C26.0625 33.7883 28.7186 32.6631 30.6899 30.6918C32.6612 28.7205 33.7863 26.0644 33.8178 23.308Z" fill="#FFE500"/>
<path d="M35.0985 11.8387C32.1206 8.86071 28.0393 7.23002 23.7526 7.30533C19.4658 7.38063 15.3247 9.15576 12.2403 12.2402C9.15582 15.3246 7.38069 19.4657 7.30538 23.7525C7.23008 28.0393 8.86076 32.1205 11.8387 35.0985L13.9177 33.0194C11.4721 30.5739 10.133 27.2222 10.1948 23.7017C10.2567 20.1813 11.7145 16.7805 14.2475 14.2475C16.7806 11.7144 20.1814 10.2566 23.7018 10.1948C27.2222 10.1329 30.5739 11.4721 33.0195 13.9177L35.0985 11.8387Z" fill="#585858"/>
<path d="M12.3289 35.5888C15.3898 38.6497 19.5506 40.36 23.8961 40.3433C28.2415 40.3267 32.4155 38.5845 35.5 35.5C38.5844 32.4156 40.3266 28.2415 40.3432 23.8961C40.3599 19.5507 38.6497 15.3899 35.5888 12.329L33.5097 14.408C36.0234 16.9217 37.4279 20.3387 37.4143 23.9073C37.4006 27.4759 35.9699 30.9038 33.4368 33.4369C30.9038 35.9699 27.4759 37.4007 23.9073 37.4143C20.3387 37.428 16.9217 36.0235 14.408 33.5098L12.3289 35.5888Z" fill="#FFE500"/>
</svg>
