<svg width="34" height="52" viewBox="0 0 34 52" fill="none" xmlns="http://www.w3.org/2000/svg">
<path fill-rule="evenodd" clip-rule="evenodd" d="M1 50.2958V51H5.36364V50.2958V22.1268H5.48L33 14.0163L5.48 4.52112H5.36364V1H1V4.52112V22.1268V50.2958Z" fill="#FF0000"/>
<path d="M1 51H0.75V51.25H1V51ZM5.36364 51V51.25H5.61364V51H5.36364ZM5.36364 22.1268V21.8768H5.11364V22.1268H5.36364ZM5.48 22.1268V22.3768H5.51607L5.55067 22.3666L5.48 22.1268ZM33 14.0163L33.0707 14.2561L33.8208 14.035L33.0815 13.78L33 14.0163ZM5.48 4.52112L5.56154 4.28479L5.52192 4.27112H5.48V4.52112ZM5.36364 4.52112H5.11364V4.77112H5.36364V4.52112ZM5.36364 1H5.61364V0.75H5.36364V1ZM1 1V0.75H0.75V1H1ZM1.25 51V50.8239H0.75V51H1.25ZM1.25 50.4718V50.2958H0.75V50.4718H1.25ZM1.25 50.2958V49.7927H0.75V50.2958H1.25ZM1.25 48.7867V47.7807H0.75V48.7867H1.25ZM1.25 46.7746V45.7686H0.75V46.7746H1.25ZM1.25 44.7626V43.7565H0.75V44.7626H1.25ZM1.25 42.7505V41.7445H0.75V42.7505H1.25ZM1.25 40.7384V39.7324H0.75V40.7384H1.25ZM1.25 38.7263V37.7203H0.75V38.7263H1.25ZM1.25 36.7143V35.7082H0.75V36.7143H1.25ZM1.25 34.7022V33.6962H0.75V34.7022H1.25ZM1.25 32.6901V31.6841H0.75V32.6901H1.25ZM1.25 30.6781V29.672H0.75V30.6781H1.25ZM1.25 28.666V27.6599H0.75V28.666H1.25ZM1.25 26.6539V25.6479H0.75V26.6539H1.25ZM1.25 24.6418V23.6358H0.75V24.6418H1.25ZM1.25 22.6298V22.1268H0.75V22.6298H1.25ZM1.25 22.1268V21.6377H0.75V22.1268H1.25ZM1.25 20.6596V19.6815H0.75V20.6596H1.25ZM1.25 18.7034V17.7253H0.75V18.7034H1.25ZM1.25 16.7473V15.7692H0.75V16.7473H1.25ZM1.25 14.7911V13.813H0.75V14.7911H1.25ZM1.25 12.8349V11.8568H0.75V12.8349H1.25ZM1.25 10.8787V9.90062H0.75V10.8787H1.25ZM1.25 8.92253V7.94444H0.75V8.92253H1.25ZM1.25 6.96634V5.98825H0.75V6.96634H1.25ZM1.25 5.01016V4.52112H0.75V5.01016H1.25ZM1.25 4.52112V4.08098H0.75V4.52112H1.25ZM1.25 3.2007V2.32042H0.75V3.2007H1.25ZM1.25 1.44014V1H0.75V1.44014H1.25ZM1 1.25H1.54545V0.75H1V1.25ZM2.63636 1.25H3.72727V0.75H2.63636V1.25ZM4.81818 1.25H5.36364V0.75H4.81818V1.25ZM5.11364 1V1.44014H5.61364V1H5.11364ZM5.11364 2.32042V3.2007H5.61364V2.32042H5.11364ZM5.11364 4.08098V4.52112H5.61364V4.08098H5.11364ZM5.36364 4.77112H5.39273V4.27112H5.36364V4.77112ZM5.45091 4.77112H5.48V4.27112H5.45091V4.77112ZM5.39846 4.75745L5.85713 4.9157L6.02021 4.44304L5.56154 4.28479L5.39846 4.75745ZM6.77446 5.23221L7.69179 5.54871L7.85487 5.07606L6.93754 4.75955L6.77446 5.23221ZM8.60913 5.86522L9.52646 6.18173L9.68954 5.70907L8.77221 5.39256L8.60913 5.86522ZM10.4438 6.49823L11.3611 6.81474L11.5242 6.34208L10.6069 6.02557L10.4438 6.49823ZM12.2785 7.13124L13.1958 7.44775L13.3589 6.97509L12.4415 6.65858L12.2785 7.13124ZM14.1131 7.76425L15.0305 8.08076L15.1935 7.6081L14.2762 7.2916L14.1131 7.76425ZM15.9478 8.39726L16.8651 8.71377L17.0282 8.24111L16.1109 7.92461L15.9478 8.39726ZM17.7825 9.03028L18.6998 9.34678L18.8629 8.87412L17.9455 8.55762L17.7825 9.03028ZM19.6171 9.66329L20.5345 9.97979L20.6975 9.50714L19.7802 9.19063L19.6171 9.66329ZM21.4518 10.2963L22.3691 10.6128L22.5322 10.1401L21.6149 9.82364L21.4518 10.2963ZM23.2865 10.9293L24.2038 11.2458L24.3669 10.7732L23.4495 10.4567L23.2865 10.9293ZM25.1211 11.5623L26.0385 11.8788L26.2015 11.4062L25.2842 11.0897L25.1211 11.5623ZM26.9558 12.1953L27.8731 12.5118L28.0362 12.0392L27.1189 11.7227L26.9558 12.1953ZM28.7905 12.8283L29.7078 13.1448L29.8709 12.6722L28.9535 12.3557L28.7905 12.8283ZM30.6251 13.4614L31.5425 13.7779L31.7055 13.3052L30.7882 12.9887L30.6251 13.4614ZM32.4598 14.0944L32.9185 14.2526L33.0815 13.78L32.6229 13.6217L32.4598 14.0944ZM32.9293 13.7765L32.4379 13.9213L32.5792 14.4009L33.0707 14.2561L32.9293 13.7765ZM31.455 14.211L30.4722 14.5006L30.6135 14.9802L31.5964 14.6906L31.455 14.211ZM29.4893 14.7903L28.5065 15.08L28.6478 15.5596L29.6307 15.2699L29.4893 14.7903ZM27.5236 15.3696L26.5408 15.6593L26.6821 16.1389L27.665 15.8492L27.5236 15.3696ZM25.5579 15.9489L24.575 16.2386L24.7164 16.7182L25.6992 16.4285L25.5579 15.9489ZM23.5922 16.5283L22.6093 16.8179L22.7507 17.2975L23.7335 17.0079L23.5922 16.5283ZM21.6265 17.1076L20.6436 17.3972L20.785 17.8768L21.7678 17.5872L21.6265 17.1076ZM19.6608 17.6869L18.6779 17.9766L18.8192 18.4562L19.8021 18.1665L19.6608 17.6869ZM17.695 18.2662L16.7122 18.5559L16.8535 19.0355L17.8364 18.7458L17.695 18.2662ZM15.7293 18.8455L14.7465 19.1352L14.8878 19.6148L15.8707 19.3251L15.7293 18.8455ZM13.7636 19.4248L12.7808 19.7145L12.9221 20.1941L13.905 19.9045L13.7636 19.4248ZM11.7979 20.0042L10.815 20.2938L10.9564 20.7734L11.9392 20.4838L11.7979 20.0042ZM9.83219 20.5835L8.84934 20.8731L8.99068 21.3527L9.97354 21.0631L9.83219 20.5835ZM7.86648 21.1628L6.88362 21.4525L7.02497 21.9321L8.00782 21.6424L7.86648 21.1628ZM5.90077 21.7421L5.40933 21.887L5.55067 22.3666L6.04211 22.2217L5.90077 21.7421ZM5.48 21.8768H5.45091V22.3768H5.48V21.8768ZM5.39273 21.8768H5.36364V22.3768H5.39273V21.8768ZM5.11364 22.1268V22.6298H5.61364V22.1268H5.11364ZM5.11364 23.6358V24.6418H5.61364V23.6358H5.11364ZM5.11364 25.6479V26.6539H5.61364V25.6479H5.11364ZM5.11364 27.66V28.666H5.61364V27.66H5.11364ZM5.11364 29.672V30.6781H5.61364V29.672H5.11364ZM5.11364 31.6841V32.6901H5.61364V31.6841H5.11364ZM5.11364 33.6962V34.7022H5.61364V33.6962H5.11364ZM5.11364 35.7082V36.7143H5.61364V35.7082H5.11364ZM5.11364 37.7203V38.7263H5.61364V37.7203H5.11364ZM5.11364 39.7324V40.7384H5.61364V39.7324H5.11364ZM5.11364 41.7445V42.7505H5.61364V41.7445H5.11364ZM5.11364 43.7565V44.7626H5.61364V43.7565H5.11364ZM5.11364 45.7686V46.7746H5.61364V45.7686H5.11364ZM5.11364 47.7807V48.7867H5.61364V47.7807H5.11364ZM5.11364 49.7928V50.2958H5.61364V49.7928H5.11364ZM5.11364 50.2958V50.4718H5.61364V50.2958H5.11364ZM5.11364 50.8239V51H5.61364V50.8239H5.11364ZM5.36364 50.75H4.81818V51.25H5.36364V50.75ZM3.72727 50.75H2.63636V51.25H3.72727V50.75ZM1.54545 50.75H1V51.25H1.54545V50.75Z" fill="#B10000"/>
</svg>
